<?xml version="1.0" standalone="no"?>
<svg viewBox="0 0 200 200" xmlns="http://www.w3.org/2000/svg">
  <path fill="#B465E6FF" d="M38.5,-64.5C48.7,-53.3,54.9,-40.6,61,-27.7C67,-14.8,72.9,-1.7,74.1,12.7C75.2,27.1,71.5,42.9,61.6,52C51.7,61.1,35.5,63.5,19.9,68.3C4.4,73,-10.6,80.2,-26.3,80C-42,79.8,-58.4,72.3,-65.5,59.4C-72.6,46.5,-70.4,28.1,-71.7,11.1C-73,-6,-77.7,-21.8,-70,-29.3C-62.4,-36.7,-42.4,-35.8,-28.7,-45.3C-14.9,-54.9,-7.5,-75,3.3,-80.2C14.2,-85.4,28.3,-75.7,38.5,-64.5Z" transform="translate(100 100)" />
</svg>
